<?xml version="1.0" standalone="no"?>
<!DOCTYPE svg PUBLIC "-//W3C//DTD SVG 20010904//EN"
 "http://www.w3.org/TR/2001/REC-SVG-20010904/DTD/svg10.dtd">
<svg version="1.0" xmlns="http://www.w3.org/2000/svg"
 width="584.000000pt" height="584.000000pt" viewBox="0 0 584.000000 584.000000"
 preserveAspectRatio="xMidYMid meet">

<g transform="translate(0.000000,584.000000) scale(0.100000,-0.100000)"
fill="#000000" stroke="none">
<path d="M3709 4493 c20 -20 31 -44 36 -74 3 -24 5 -262 3 -529 -3 -456 -4
-487 -22 -513 -10 -15 -27 -32 -36 -37 -10 -5 -375 -10 -863 -11 -678 -1 -847
-4 -847 -14 0 -7 -3 -27 -6 -44 l-6 -31 849 0 c932 0 875 4 908 -60 13 -25 15
-152 15 -942 0 -849 -1 -915 -18 -948 -26 -52 -51 -60 -189 -60 l-122 0 31
-75 30 -75 114 0 114 0 0 74 0 73 57 6 c45 5 63 12 87 37 l31 30 3 911 c2 617
-1 923 -8 950 -7 24 -22 48 -40 61 -25 18 -30 29 -30 64 0 28 5 44 15 48 8 3
24 20 35 38 19 32 20 50 20 559 l0 525 -30 29 c-26 25 -40 30 -96 33 l-65 4
30 -29z"/>
<path d="M2112 4204 c-22 -15 -22 -18 -22 -273 0 -244 1 -259 20 -276 27 -24
70 -22 92 5 16 20 18 46 18 270 l0 249 -26 20 c-32 25 -52 26 -82 5z"/>
<path d="M2112 3044 l-22 -15 0 -470 c0 -456 1 -470 20 -489 28 -28 64 -25 89
6 21 26 21 36 21 485 l0 458 -26 20 c-32 25 -52 26 -82 5z"/>
<path d="M2077 1223 c-9 -8 -9 -106 -1 -127 5 -13 25 -16 115 -16 l110 0 29
66 c17 36 30 70 30 75 0 10 -273 13 -283 2z"/>
</g>
</svg>
